<mxfile host="app.diagrams.net" modified="2023-06-06T06:32:09.486Z" agent="Mozilla/5.0 (Windows NT 10.0; Win64; x64) AppleWebKit/537.36 (KHTML, like Gecko) Chrome/114.0.0.0 Safari/537.36" etag="tSEwKTVBFKgIgBchx8lV" version="21.3.7" type="github" pages="2">
  <diagram id="BhBrtAyWEjpTdATdSYob" name="第 1 页">
    <mxGraphModel dx="1434" dy="1965" grid="1" gridSize="10" guides="1" tooltips="1" connect="1" arrows="1" fold="1" page="1" pageScale="1" pageWidth="827" pageHeight="1169" math="0" shadow="0">
      <root>
        <mxCell id="0" />
        <mxCell id="1" parent="0" />
        <mxCell id="tHpRwziwCxC4bhjzu8Y--1" value="Process" style="rounded=0;whiteSpace=wrap;html=1;fillColor=none;verticalAlign=top;dashed=1;" vertex="1" parent="1">
          <mxGeometry x="170" y="-770" width="290" height="230" as="geometry" />
        </mxCell>
        <mxCell id="tHpRwziwCxC4bhjzu8Y--2" value="Context" style="rounded=0;whiteSpace=wrap;html=1;fillColor=none;verticalAlign=top;dashed=1;" vertex="1" parent="1">
          <mxGeometry x="470" y="-770" width="110" height="230" as="geometry" />
        </mxCell>
        <mxCell id="tHpRwziwCxC4bhjzu8Y--3" value="Memories" style="rounded=1;whiteSpace=wrap;html=1;fillColor=none;" vertex="1" parent="1">
          <mxGeometry x="480" y="-740" width="90" height="40" as="geometry" />
        </mxCell>
        <mxCell id="tHpRwziwCxC4bhjzu8Y--4" value="Facts" style="rounded=1;whiteSpace=wrap;html=1;fillColor=none;" vertex="1" parent="1">
          <mxGeometry x="480" y="-690" width="90" height="40" as="geometry" />
        </mxCell>
        <mxCell id="tHpRwziwCxC4bhjzu8Y--5" value="Notes" style="rounded=1;whiteSpace=wrap;html=1;fillColor=none;" vertex="1" parent="1">
          <mxGeometry x="480" y="-640" width="90" height="40" as="geometry" />
        </mxCell>
        <mxCell id="tHpRwziwCxC4bhjzu8Y--6" value="Tools" style="rounded=1;whiteSpace=wrap;html=1;fillColor=none;" vertex="1" parent="1">
          <mxGeometry x="480" y="-590" width="90" height="40" as="geometry" />
        </mxCell>
        <mxCell id="tHpRwziwCxC4bhjzu8Y--7" value="Intension" style="rounded=0;whiteSpace=wrap;html=1;fillColor=none;" vertex="1" parent="1">
          <mxGeometry x="187.5" y="-740" width="255" height="40" as="geometry" />
        </mxCell>
        <mxCell id="tHpRwziwCxC4bhjzu8Y--8" value="Thinking" style="rounded=0;whiteSpace=wrap;html=1;fillColor=none;" vertex="1" parent="1">
          <mxGeometry x="187.5" y="-690" width="255" height="40" as="geometry" />
        </mxCell>
        <mxCell id="tHpRwziwCxC4bhjzu8Y--9" value="Execute" style="rounded=0;whiteSpace=wrap;html=1;fillColor=none;" vertex="1" parent="1">
          <mxGeometry x="187.5" y="-640" width="255" height="40" as="geometry" />
        </mxCell>
        <mxCell id="tHpRwziwCxC4bhjzu8Y--10" value="Learn" style="rounded=0;whiteSpace=wrap;html=1;fillColor=none;" vertex="1" parent="1">
          <mxGeometry x="187.5" y="-590" width="255" height="40" as="geometry" />
        </mxCell>
        <mxCell id="tHpRwziwCxC4bhjzu8Y--11" value="Security" style="rounded=0;whiteSpace=wrap;html=1;fillColor=none;" vertex="1" parent="1">
          <mxGeometry x="170" y="-810" width="410" height="30" as="geometry" />
        </mxCell>
        <mxCell id="tHpRwziwCxC4bhjzu8Y--12" value="Platform" style="rounded=0;whiteSpace=wrap;html=1;fillColor=none;" vertex="1" parent="1">
          <mxGeometry x="170" y="-490" width="410" height="30" as="geometry" />
        </mxCell>
        <mxCell id="tHpRwziwCxC4bhjzu8Y--13" value="LLM" style="rounded=0;whiteSpace=wrap;html=1;fillColor=none;" vertex="1" parent="1">
          <mxGeometry x="170" y="-530" width="410" height="30" as="geometry" />
        </mxCell>
        <mxCell id="tHpRwziwCxC4bhjzu8Y--14" value="信息，模型，行动，反馈" style="text;html=1;strokeColor=none;fillColor=none;align=center;verticalAlign=middle;whiteSpace=wrap;rounded=0;" vertex="1" parent="1">
          <mxGeometry x="220" y="-890" width="310" height="30" as="geometry" />
        </mxCell>
      </root>
    </mxGraphModel>
  </diagram>
  <diagram id="zL9Q7qfvGsfVqsF9uqoF" name="第 2 页">
    <mxGraphModel dx="2261" dy="796" grid="1" gridSize="10" guides="1" tooltips="1" connect="1" arrows="1" fold="1" page="1" pageScale="1" pageWidth="827" pageHeight="1169" math="0" shadow="0">
      <root>
        <mxCell id="0" />
        <mxCell id="1" parent="0" />
        <mxCell id="UT_cnjohO_Kn8kh5FKLc-1" style="edgeStyle=orthogonalEdgeStyle;rounded=0;orthogonalLoop=1;jettySize=auto;html=1;exitX=1;exitY=0.5;exitDx=0;exitDy=0;entryX=0;entryY=0.5;entryDx=0;entryDy=0;" parent="1" source="UT_cnjohO_Kn8kh5FKLc-2" target="UT_cnjohO_Kn8kh5FKLc-65" edge="1">
          <mxGeometry relative="1" as="geometry" />
        </mxCell>
        <mxCell id="UT_cnjohO_Kn8kh5FKLc-2" value="Process" style="rounded=0;whiteSpace=wrap;html=1;fillColor=none;dashed=1;verticalAlign=top;fontStyle=1" parent="1" vertex="1">
          <mxGeometry x="-330" y="140" width="510" height="690" as="geometry" />
        </mxCell>
        <mxCell id="UT_cnjohO_Kn8kh5FKLc-3" style="edgeStyle=orthogonalEdgeStyle;rounded=0;orthogonalLoop=1;jettySize=auto;html=1;exitX=0.5;exitY=1;exitDx=0;exitDy=0;entryX=0.5;entryY=0;entryDx=0;entryDy=0;" parent="1" source="UT_cnjohO_Kn8kh5FKLc-4" target="UT_cnjohO_Kn8kh5FKLc-32" edge="1">
          <mxGeometry relative="1" as="geometry" />
        </mxCell>
        <mxCell id="UT_cnjohO_Kn8kh5FKLc-4" value="Intention Enhance" style="rounded=0;whiteSpace=wrap;html=1;fillColor=none;dashed=1;verticalAlign=top;" parent="1" vertex="1">
          <mxGeometry x="-320" y="180" width="490" height="120" as="geometry" />
        </mxCell>
        <mxCell id="UT_cnjohO_Kn8kh5FKLc-5" value="Context" style="rounded=0;whiteSpace=wrap;html=1;fillColor=none;dashed=1;verticalAlign=top;fontStyle=1" parent="1" vertex="1">
          <mxGeometry x="390" y="140" width="460" height="470" as="geometry" />
        </mxCell>
        <mxCell id="UT_cnjohO_Kn8kh5FKLc-6" value="load" style="edgeStyle=orthogonalEdgeStyle;rounded=0;orthogonalLoop=1;jettySize=auto;html=1;exitX=0.5;exitY=0;exitDx=0;exitDy=0;entryX=0.25;entryY=1;entryDx=0;entryDy=0;" parent="1" source="UT_cnjohO_Kn8kh5FKLc-12" target="UT_cnjohO_Kn8kh5FKLc-17" edge="1">
          <mxGeometry relative="1" as="geometry" />
        </mxCell>
        <mxCell id="UT_cnjohO_Kn8kh5FKLc-7" value="Search" style="rounded=0;whiteSpace=wrap;html=1;fillColor=none;verticalAlign=top;dashed=1;" parent="1" vertex="1">
          <mxGeometry x="410" y="310" width="420" height="280" as="geometry" />
        </mxCell>
        <mxCell id="UT_cnjohO_Kn8kh5FKLc-8" value="DataStore" style="rounded=0;whiteSpace=wrap;html=1;fillColor=none;verticalAlign=top;" parent="1" vertex="1">
          <mxGeometry x="420" y="500" width="400" height="80" as="geometry" />
        </mxCell>
        <mxCell id="UT_cnjohO_Kn8kh5FKLc-9" value="VectorStore&lt;br&gt;（Chroma, Milvus...)" style="rounded=0;whiteSpace=wrap;html=1;fillColor=none;" parent="1" vertex="1">
          <mxGeometry x="428" y="530" width="180" height="40" as="geometry" />
        </mxCell>
        <mxCell id="UT_cnjohO_Kn8kh5FKLc-10" value="ScalarStore&lt;br&gt;（MySQL, Redis...)" style="rounded=0;whiteSpace=wrap;html=1;fillColor=none;" parent="1" vertex="1">
          <mxGeometry x="630" y="530" width="180" height="40" as="geometry" />
        </mxCell>
        <mxCell id="UT_cnjohO_Kn8kh5FKLc-11" value="Index&lt;br&gt;（Embeddings， Keywords...)" style="rounded=0;whiteSpace=wrap;html=1;fillColor=none;" parent="1" vertex="1">
          <mxGeometry x="420" y="450" width="400" height="40" as="geometry" />
        </mxCell>
        <mxCell id="UT_cnjohO_Kn8kh5FKLc-12" value="Retrieval&lt;br&gt;（Similar Match, Exact Match)" style="rounded=0;whiteSpace=wrap;html=1;fillColor=none;" parent="1" vertex="1">
          <mxGeometry x="420" y="340" width="190" height="50" as="geometry" />
        </mxCell>
        <mxCell id="UT_cnjohO_Kn8kh5FKLc-13" value="Storage&lt;br&gt;（TextSplitter)" style="rounded=0;whiteSpace=wrap;html=1;fillColor=none;" parent="1" vertex="1">
          <mxGeometry x="630" y="390" width="190" height="50" as="geometry" />
        </mxCell>
        <mxCell id="UT_cnjohO_Kn8kh5FKLc-14" value="Rank" style="rounded=0;whiteSpace=wrap;html=1;fillColor=none;" parent="1" vertex="1">
          <mxGeometry x="420" y="400" width="190" height="40" as="geometry" />
        </mxCell>
        <mxCell id="UT_cnjohO_Kn8kh5FKLc-15" value="Loader&lt;br&gt;(From doc, web)" style="rounded=0;whiteSpace=wrap;html=1;fillColor=none;" parent="1" vertex="1">
          <mxGeometry x="630" y="340" width="190" height="40" as="geometry" />
        </mxCell>
        <mxCell id="UT_cnjohO_Kn8kh5FKLc-16" value="save" style="edgeStyle=orthogonalEdgeStyle;rounded=0;orthogonalLoop=1;jettySize=auto;html=1;exitX=0.75;exitY=1;exitDx=0;exitDy=0;entryX=0.5;entryY=0;entryDx=0;entryDy=0;" parent="1" source="UT_cnjohO_Kn8kh5FKLc-17" target="UT_cnjohO_Kn8kh5FKLc-15" edge="1">
          <mxGeometry relative="1" as="geometry" />
        </mxCell>
        <mxCell id="UT_cnjohO_Kn8kh5FKLc-17" value="Library" style="rounded=0;whiteSpace=wrap;html=1;fillColor=none;dashed=1;verticalAlign=top;" parent="1" vertex="1">
          <mxGeometry x="410" y="180" width="420" height="90" as="geometry" />
        </mxCell>
        <mxCell id="UT_cnjohO_Kn8kh5FKLc-18" value="Memories" style="rounded=1;whiteSpace=wrap;html=1;fillColor=none;" parent="1" vertex="1">
          <mxGeometry x="420" y="210" width="90" height="50" as="geometry" />
        </mxCell>
        <mxCell id="UT_cnjohO_Kn8kh5FKLc-19" value="Facts" style="rounded=1;whiteSpace=wrap;html=1;fillColor=none;" parent="1" vertex="1">
          <mxGeometry x="519" y="210" width="92" height="50" as="geometry" />
        </mxCell>
        <mxCell id="UT_cnjohO_Kn8kh5FKLc-20" value="Notes" style="rounded=1;whiteSpace=wrap;html=1;fillColor=none;" parent="1" vertex="1">
          <mxGeometry x="620" y="210" width="90" height="50" as="geometry" />
        </mxCell>
        <mxCell id="UT_cnjohO_Kn8kh5FKLc-21" value="Tools" style="rounded=1;whiteSpace=wrap;html=1;fillColor=none;" parent="1" vertex="1">
          <mxGeometry x="720" y="210" width="90" height="50" as="geometry" />
        </mxCell>
        <mxCell id="UT_cnjohO_Kn8kh5FKLc-22" style="edgeStyle=orthogonalEdgeStyle;rounded=0;orthogonalLoop=1;jettySize=auto;html=1;exitX=1;exitY=0.5;exitDx=0;exitDy=0;entryX=1;entryY=0.5;entryDx=0;entryDy=0;" parent="1" source="UT_cnjohO_Kn8kh5FKLc-24" target="UT_cnjohO_Kn8kh5FKLc-17" edge="1">
          <mxGeometry relative="1" as="geometry">
            <Array as="points">
              <mxPoint x="890" y="660" />
              <mxPoint x="890" y="225" />
            </Array>
          </mxGeometry>
        </mxCell>
        <mxCell id="UT_cnjohO_Kn8kh5FKLc-23" value="update bad cases, tools..." style="edgeLabel;html=1;align=center;verticalAlign=middle;resizable=0;points=[];" parent="UT_cnjohO_Kn8kh5FKLc-22" vertex="1" connectable="0">
          <mxGeometry x="0.0617" relative="1" as="geometry">
            <mxPoint x="30" y="14" as="offset" />
          </mxGeometry>
        </mxCell>
        <mxCell id="UT_cnjohO_Kn8kh5FKLc-24" value="Platform&lt;br&gt;(Flow&amp;nbsp;visualization, Feedback, Monitor,&amp;nbsp;Intervention...)" style="rounded=0;whiteSpace=wrap;html=1;fillColor=none;" parent="1" vertex="1">
          <mxGeometry x="390" y="630" width="460" height="50" as="geometry" />
        </mxCell>
        <mxCell id="UT_cnjohO_Kn8kh5FKLc-25" style="edgeStyle=orthogonalEdgeStyle;rounded=0;orthogonalLoop=1;jettySize=auto;html=1;exitX=1;exitY=0.5;exitDx=0;exitDy=0;entryX=0;entryY=0.5;entryDx=0;entryDy=0;" parent="1" source="UT_cnjohO_Kn8kh5FKLc-27" target="UT_cnjohO_Kn8kh5FKLc-34" edge="1">
          <mxGeometry relative="1" as="geometry" />
        </mxCell>
        <mxCell id="UT_cnjohO_Kn8kh5FKLc-26" style="edgeStyle=orthogonalEdgeStyle;rounded=0;orthogonalLoop=1;jettySize=auto;html=1;exitX=0.5;exitY=0;exitDx=0;exitDy=0;entryX=0.5;entryY=0;entryDx=0;entryDy=0;" parent="1" source="UT_cnjohO_Kn8kh5FKLc-27" target="UT_cnjohO_Kn8kh5FKLc-18" edge="1">
          <mxGeometry relative="1" as="geometry">
            <Array as="points">
              <mxPoint x="-225" y="100" />
              <mxPoint x="465" y="100" />
            </Array>
          </mxGeometry>
        </mxCell>
        <mxCell id="UT_cnjohO_Kn8kh5FKLc-27" value="Session" style="rounded=0;whiteSpace=wrap;html=1;verticalAlign=top;fillColor=none;" parent="1" vertex="1">
          <mxGeometry x="-310" y="220" width="170" height="70" as="geometry" />
        </mxCell>
        <mxCell id="UT_cnjohO_Kn8kh5FKLc-28" value="Long short-term memory" style="rounded=0;whiteSpace=wrap;html=1;fillColor=none;" parent="1" vertex="1">
          <mxGeometry x="-300" y="250" width="150" height="30" as="geometry" />
        </mxCell>
        <mxCell id="UT_cnjohO_Kn8kh5FKLc-29" value="Similar Search Notes&lt;br&gt;(for&amp;nbsp;clarification)" style="edgeStyle=orthogonalEdgeStyle;rounded=0;orthogonalLoop=1;jettySize=auto;html=1;exitX=1;exitY=0.5;exitDx=0;exitDy=0;entryX=0;entryY=0.5;entryDx=0;entryDy=0;" parent="1" source="UT_cnjohO_Kn8kh5FKLc-30" target="UT_cnjohO_Kn8kh5FKLc-17" edge="1">
          <mxGeometry x="-0.0664" y="5" relative="1" as="geometry">
            <mxPoint x="1" y="1" as="offset" />
          </mxGeometry>
        </mxCell>
        <mxCell id="UT_cnjohO_Kn8kh5FKLc-30" value="Instruction clarify" style="shape=label;whiteSpace=wrap;html=1;boundedLbl=1;rounded=0;verticalAlign=top;" parent="1" vertex="1">
          <mxGeometry x="35" y="227.5" width="124" height="55" as="geometry" />
        </mxCell>
        <mxCell id="UT_cnjohO_Kn8kh5FKLc-31" style="edgeStyle=orthogonalEdgeStyle;rounded=0;orthogonalLoop=1;jettySize=auto;html=1;entryX=0.5;entryY=0;entryDx=0;entryDy=0;" parent="1" source="UT_cnjohO_Kn8kh5FKLc-32" target="UT_cnjohO_Kn8kh5FKLc-37" edge="1">
          <mxGeometry relative="1" as="geometry" />
        </mxCell>
        <mxCell id="UT_cnjohO_Kn8kh5FKLc-32" value="Prompt&lt;br&gt;(Long mem, Short mem，Recent Chat History，Query(Instruction)" style="shape=document;whiteSpace=wrap;html=1;boundedLbl=1;fillColor=none;" parent="1" vertex="1">
          <mxGeometry x="-225" y="325" width="300" height="70" as="geometry" />
        </mxCell>
        <mxCell id="UT_cnjohO_Kn8kh5FKLc-33" style="edgeStyle=orthogonalEdgeStyle;rounded=0;orthogonalLoop=1;jettySize=auto;html=1;exitX=1;exitY=0.5;exitDx=0;exitDy=0;entryX=0;entryY=0.5;entryDx=0;entryDy=0;" parent="1" source="UT_cnjohO_Kn8kh5FKLc-34" target="UT_cnjohO_Kn8kh5FKLc-30" edge="1">
          <mxGeometry relative="1" as="geometry" />
        </mxCell>
        <mxCell id="UT_cnjohO_Kn8kh5FKLc-34" value="summarize" style="ellipse;whiteSpace=wrap;html=1;aspect=fixed;" parent="1" vertex="1">
          <mxGeometry x="-80" y="220" width="70" height="70" as="geometry" />
        </mxCell>
        <mxCell id="UT_cnjohO_Kn8kh5FKLc-35" style="edgeStyle=orthogonalEdgeStyle;rounded=0;orthogonalLoop=1;jettySize=auto;html=1;exitX=0.5;exitY=1;exitDx=0;exitDy=0;" parent="1" source="UT_cnjohO_Kn8kh5FKLc-37" target="UT_cnjohO_Kn8kh5FKLc-43" edge="1">
          <mxGeometry relative="1" as="geometry" />
        </mxCell>
        <mxCell id="UT_cnjohO_Kn8kh5FKLc-36" style="edgeStyle=orthogonalEdgeStyle;rounded=0;orthogonalLoop=1;jettySize=auto;html=1;exitX=1;exitY=0.5;exitDx=0;exitDy=0;entryX=-0.002;entryY=0.622;entryDx=0;entryDy=0;entryPerimeter=0;" parent="1" source="UT_cnjohO_Kn8kh5FKLc-37" target="UT_cnjohO_Kn8kh5FKLc-17" edge="1">
          <mxGeometry relative="1" as="geometry">
            <Array as="points">
              <mxPoint x="320" y="450" />
              <mxPoint x="320" y="236" />
            </Array>
          </mxGeometry>
        </mxCell>
        <mxCell id="UT_cnjohO_Kn8kh5FKLc-37" value="Thinking" style="rounded=0;whiteSpace=wrap;html=1;fillColor=none;dashed=1;verticalAlign=top;" parent="1" vertex="1">
          <mxGeometry x="-320" y="410" width="490" height="80" as="geometry" />
        </mxCell>
        <mxCell id="UT_cnjohO_Kn8kh5FKLc-38" value="Search Reasoning Pattern" style="rounded=0;whiteSpace=wrap;html=1;fillColor=none;" parent="1" vertex="1">
          <mxGeometry x="-272.5" y="440" width="150" height="40" as="geometry" />
        </mxCell>
        <mxCell id="UT_cnjohO_Kn8kh5FKLc-39" value="MetaPrompt" style="rounded=0;whiteSpace=wrap;html=1;fillColor=none;" parent="1" vertex="1">
          <mxGeometry x="47" y="256.25" width="100" height="17.5" as="geometry" />
        </mxCell>
        <mxCell id="UT_cnjohO_Kn8kh5FKLc-40" value="Search Tool" style="rounded=0;whiteSpace=wrap;html=1;fillColor=none;" parent="1" vertex="1">
          <mxGeometry x="-112.5" y="440" width="100" height="40" as="geometry" />
        </mxCell>
        <mxCell id="UT_cnjohO_Kn8kh5FKLc-41" value="Search Notes" style="rounded=0;whiteSpace=wrap;html=1;fillColor=none;" parent="1" vertex="1">
          <mxGeometry x="-2.5" y="440" width="102.5" height="40" as="geometry" />
        </mxCell>
        <mxCell id="UT_cnjohO_Kn8kh5FKLc-42" style="edgeStyle=orthogonalEdgeStyle;rounded=0;orthogonalLoop=1;jettySize=auto;html=1;entryX=0.5;entryY=0;entryDx=0;entryDy=0;" parent="1" source="UT_cnjohO_Kn8kh5FKLc-43" target="UT_cnjohO_Kn8kh5FKLc-47" edge="1">
          <mxGeometry relative="1" as="geometry" />
        </mxCell>
        <mxCell id="UT_cnjohO_Kn8kh5FKLc-43" value="Prompt&lt;br&gt;(+Reasoning Pattern, +Tools, +Examples)" style="shape=document;whiteSpace=wrap;html=1;boundedLbl=1;fillColor=none;" parent="1" vertex="1">
          <mxGeometry x="-225" y="515" width="300" height="70" as="geometry" />
        </mxCell>
        <mxCell id="UT_cnjohO_Kn8kh5FKLc-44" style="edgeStyle=orthogonalEdgeStyle;rounded=0;orthogonalLoop=1;jettySize=auto;html=1;exitX=0.5;exitY=1;exitDx=0;exitDy=0;entryX=0.5;entryY=0;entryDx=0;entryDy=0;" parent="1" source="UT_cnjohO_Kn8kh5FKLc-47" target="UT_cnjohO_Kn8kh5FKLc-52" edge="1">
          <mxGeometry relative="1" as="geometry" />
        </mxCell>
        <mxCell id="UT_cnjohO_Kn8kh5FKLc-45" style="edgeStyle=orthogonalEdgeStyle;rounded=0;orthogonalLoop=1;jettySize=auto;html=1;exitX=1;exitY=0.5;exitDx=0;exitDy=0;entryX=0;entryY=0.75;entryDx=0;entryDy=0;" parent="1" source="UT_cnjohO_Kn8kh5FKLc-47" target="UT_cnjohO_Kn8kh5FKLc-17" edge="1">
          <mxGeometry relative="1" as="geometry">
            <Array as="points">
              <mxPoint x="350" y="650" />
              <mxPoint x="350" y="248" />
            </Array>
          </mxGeometry>
        </mxCell>
        <mxCell id="UT_cnjohO_Kn8kh5FKLc-46" value="load by tools" style="edgeLabel;html=1;align=center;verticalAlign=middle;resizable=0;points=[];" parent="UT_cnjohO_Kn8kh5FKLc-45" vertex="1" connectable="0">
          <mxGeometry x="-0.7766" y="-4" relative="1" as="geometry">
            <mxPoint x="41" y="-4" as="offset" />
          </mxGeometry>
        </mxCell>
        <mxCell id="UT_cnjohO_Kn8kh5FKLc-47" value="Execute" style="rounded=0;whiteSpace=wrap;html=1;fillColor=none;dashed=1;verticalAlign=top;" parent="1" vertex="1">
          <mxGeometry x="-320" y="610" width="490" height="80" as="geometry" />
        </mxCell>
        <mxCell id="UT_cnjohO_Kn8kh5FKLc-48" value="Flow" style="rounded=0;whiteSpace=wrap;html=1;fillColor=none;" parent="1" vertex="1">
          <mxGeometry x="-310" y="640" width="150" height="40" as="geometry" />
        </mxCell>
        <mxCell id="UT_cnjohO_Kn8kh5FKLc-49" value="Executor&lt;br&gt;(Agent, Tool, DSL)" style="rounded=0;whiteSpace=wrap;html=1;fillColor=none;" parent="1" vertex="1">
          <mxGeometry x="-150" y="640" width="150" height="40" as="geometry" />
        </mxCell>
        <mxCell id="UT_cnjohO_Kn8kh5FKLc-50" value="Decision" style="rounded=0;whiteSpace=wrap;html=1;fillColor=none;" parent="1" vertex="1">
          <mxGeometry x="9" y="640" width="150" height="40" as="geometry" />
        </mxCell>
        <mxCell id="UT_cnjohO_Kn8kh5FKLc-51" style="edgeStyle=orthogonalEdgeStyle;rounded=0;orthogonalLoop=1;jettySize=auto;html=1;entryX=0.5;entryY=0;entryDx=0;entryDy=0;" parent="1" source="UT_cnjohO_Kn8kh5FKLc-52" target="UT_cnjohO_Kn8kh5FKLc-54" edge="1">
          <mxGeometry relative="1" as="geometry">
            <mxPoint x="-75" y="790" as="targetPoint" />
          </mxGeometry>
        </mxCell>
        <mxCell id="UT_cnjohO_Kn8kh5FKLc-52" value="Result" style="shape=document;whiteSpace=wrap;html=1;boundedLbl=1;fillColor=none;" parent="1" vertex="1">
          <mxGeometry x="-225" y="720" width="300" height="50" as="geometry" />
        </mxCell>
        <mxCell id="UT_cnjohO_Kn8kh5FKLc-53" style="edgeStyle=orthogonalEdgeStyle;rounded=0;orthogonalLoop=1;jettySize=auto;html=1;entryX=0.5;entryY=1;entryDx=0;entryDy=0;exitX=1;exitY=1;exitDx=0;exitDy=0;" parent="1" source="UT_cnjohO_Kn8kh5FKLc-54" target="UT_cnjohO_Kn8kh5FKLc-24" edge="1">
          <mxGeometry relative="1" as="geometry">
            <Array as="points">
              <mxPoint x="-47" y="890" />
              <mxPoint x="620" y="890" />
            </Array>
          </mxGeometry>
        </mxCell>
        <mxCell id="UT_cnjohO_Kn8kh5FKLc-54" value="Feedback" style="ellipse;whiteSpace=wrap;html=1;aspect=fixed;" parent="1" vertex="1">
          <mxGeometry x="-115" y="790" width="80" height="80" as="geometry" />
        </mxCell>
        <mxCell id="UT_cnjohO_Kn8kh5FKLc-55" style="edgeStyle=orthogonalEdgeStyle;rounded=0;orthogonalLoop=1;jettySize=auto;html=1;entryX=0;entryY=0.5;entryDx=0;entryDy=0;" parent="1" source="UT_cnjohO_Kn8kh5FKLc-58" target="UT_cnjohO_Kn8kh5FKLc-2" edge="1">
          <mxGeometry relative="1" as="geometry" />
        </mxCell>
        <mxCell id="UT_cnjohO_Kn8kh5FKLc-56" value="query" style="edgeLabel;html=1;align=center;verticalAlign=middle;resizable=0;points=[];" parent="UT_cnjohO_Kn8kh5FKLc-55" vertex="1" connectable="0">
          <mxGeometry x="-0.25" y="-3" relative="1" as="geometry">
            <mxPoint as="offset" />
          </mxGeometry>
        </mxCell>
        <mxCell id="UT_cnjohO_Kn8kh5FKLc-57" style="edgeStyle=orthogonalEdgeStyle;rounded=0;orthogonalLoop=1;jettySize=auto;html=1;entryX=0;entryY=1;entryDx=0;entryDy=0;" parent="1" source="UT_cnjohO_Kn8kh5FKLc-58" target="UT_cnjohO_Kn8kh5FKLc-54" edge="1">
          <mxGeometry relative="1" as="geometry">
            <Array as="points">
              <mxPoint x="-585" y="890" />
              <mxPoint x="-103" y="890" />
            </Array>
          </mxGeometry>
        </mxCell>
        <mxCell id="UT_cnjohO_Kn8kh5FKLc-58" value="User" style="shape=umlActor;verticalLabelPosition=bottom;verticalAlign=top;html=1;outlineConnect=0;" parent="1" vertex="1">
          <mxGeometry x="-600" y="455" width="30" height="60" as="geometry" />
        </mxCell>
        <mxCell id="UT_cnjohO_Kn8kh5FKLc-59" value="Security Filter" style="rounded=0;whiteSpace=wrap;html=1;fillColor=default;" parent="1" vertex="1">
          <mxGeometry x="-420" y="140" width="60" height="690" as="geometry" />
        </mxCell>
        <mxCell id="UT_cnjohO_Kn8kh5FKLc-60" value="handle bad cases" style="edgeStyle=orthogonalEdgeStyle;rounded=0;orthogonalLoop=1;jettySize=auto;html=1;entryX=0.75;entryY=1;entryDx=0;entryDy=0;" parent="1" source="UT_cnjohO_Kn8kh5FKLc-61" target="UT_cnjohO_Kn8kh5FKLc-24" edge="1">
          <mxGeometry relative="1" as="geometry" />
        </mxCell>
        <mxCell id="UT_cnjohO_Kn8kh5FKLc-61" value="PDM" style="shape=umlActor;verticalLabelPosition=bottom;verticalAlign=top;html=1;outlineConnect=0;" parent="1" vertex="1">
          <mxGeometry x="720" y="810" width="30" height="60" as="geometry" />
        </mxCell>
        <mxCell id="UT_cnjohO_Kn8kh5FKLc-62" value="" style="shape=flexArrow;endArrow=classic;startArrow=classic;html=1;rounded=0;" parent="1" edge="1">
          <mxGeometry width="100" height="100" relative="1" as="geometry">
            <mxPoint x="190" y="780" as="sourcePoint" />
            <mxPoint x="380" y="780" as="targetPoint" />
          </mxGeometry>
        </mxCell>
        <mxCell id="UT_cnjohO_Kn8kh5FKLc-63" value="" style="shape=flexArrow;endArrow=classic;startArrow=classic;html=1;rounded=0;" parent="1" edge="1">
          <mxGeometry width="100" height="100" relative="1" as="geometry">
            <mxPoint x="457" y="736" as="sourcePoint" />
            <mxPoint x="456.5" y="686" as="targetPoint" />
          </mxGeometry>
        </mxCell>
        <mxCell id="UT_cnjohO_Kn8kh5FKLc-64" value="Models&lt;br style=&quot;border-color: var(--border-color);&quot;&gt;(LLM and others)" style="rounded=0;whiteSpace=wrap;html=1;fillColor=none;" parent="1" vertex="1">
          <mxGeometry x="390" y="740" width="140" height="90" as="geometry" />
        </mxCell>
        <mxCell id="UT_cnjohO_Kn8kh5FKLc-65" value="Utils" style="rounded=0;whiteSpace=wrap;html=1;dashed=1;fillColor=none;verticalAlign=top;" parent="1" vertex="1">
          <mxGeometry x="220" y="470" width="110" height="130" as="geometry" />
        </mxCell>
        <mxCell id="UT_cnjohO_Kn8kh5FKLc-66" style="edgeStyle=orthogonalEdgeStyle;rounded=0;orthogonalLoop=1;jettySize=auto;html=1;exitX=1;exitY=0.5;exitDx=0;exitDy=0;" parent="1" source="UT_cnjohO_Kn8kh5FKLc-67" target="UT_cnjohO_Kn8kh5FKLc-5" edge="1">
          <mxGeometry relative="1" as="geometry">
            <Array as="points">
              <mxPoint x="370" y="520" />
              <mxPoint x="370" y="375" />
            </Array>
          </mxGeometry>
        </mxCell>
        <mxCell id="UT_cnjohO_Kn8kh5FKLc-67" value="Cache" style="rounded=0;whiteSpace=wrap;html=1;" parent="1" vertex="1">
          <mxGeometry x="230" y="500" width="90" height="40" as="geometry" />
        </mxCell>
        <mxCell id="UT_cnjohO_Kn8kh5FKLc-68" value="Frugal&lt;br&gt;Adaptor" style="rounded=0;whiteSpace=wrap;html=1;" parent="1" vertex="1">
          <mxGeometry x="230" y="550" width="90" height="40" as="geometry" />
        </mxCell>
      </root>
    </mxGraphModel>
  </diagram>
</mxfile>
